<?xml version="1.0" encoding="UTF-8"?>
<svg id="Layer_2" data-name="Layer 2" xmlns="http://www.w3.org/2000/svg" viewBox="0 0 15 14">
  <defs>
    <style>
      .cls-1 {
        fill: #fffeff;
      }
    </style>
  </defs>
  <g id="Layer_1-2" data-name="Layer 1">
    <path class="cls-1" d="M15,2.8v8.41c0,.77-.31,1.46-.82,2-.5.52-1.15.8-1.9.8h-4.1v-1.74h4.1c.57,0,1-.47,1-1.05V2.8c0-.58-.44-1.03-1-1.03h-4.1V0h4.1c.75,0,1.4.3,1.9.82.5.54.82,1.2.82,1.98ZM10.5,5.33v3.35c0,.39-.33.71-.71.71h-3.79v2.65c0,.24-.13.43-.33.54-.08.02-.17.02-.21.02-.15,0-.27-.04-.38-.15L.17,7.4c-.23-.19-.21-.58,0-.8L5.08,1.57c.29-.32.92-.13.92.39v2.67h3.79c.38,0,.71.32.71.71Z"/>
  </g>
</svg>